<svg width="77" height="77" viewBox="0 0 77 77" fill="none" xmlns="http://www.w3.org/2000/svg">
  <path d="M38.5 0C17.2391 0 0 17.2391 0 38.5C0 59.7609 17.2391 77 38.5 77C59.7609 77 77 59.7609 77 38.5C77 17.2391 59.7609 0 38.5 0ZM56.7938 26.4344L50.7125 56.3063C50.2375 58.4781 48.9188 59.0313 47.0969 57.9969L36.5156 50.3625L31.3969 55.2875C30.8656 55.8188 30.4125 56.2719 29.3781 56.2719L30.0969 45.4781L49.5406 27.9344C50.3375 27.2156 49.3594 26.8188 48.2469 27.5375L23.9219 42.4531L13.4969 39.2969C11.4031 38.6563 11.3594 37.1813 13.9281 36.1469L53.9031 20.8969C55.6469 20.2563 57.1875 21.2781 56.7938 26.4344Z" fill="white"/>
</svg>
